<svg width="36" height="36" viewBox="0 0 36 36" fill="none" xmlns="http://www.w3.org/2000/svg">
<rect width="36" height="36" fill="white"/>
<path d="M33.5455 6H2.45455C1.06364 6 0 7.06364 0 8.45455V28.0909C0 29.4818 1.06364 30.5455 2.45455 30.5455H33.5455C34.9364 30.5455 36 29.4818 36 28.0909V8.45455C36 7.06364 34.9364 6 33.5455 6ZM34.3636 28.1727L21.9273 19.9091L34.3636 8.61818V28.1727C34.3636 28.1727 34.3636 28.0909 34.3636 28.1727ZM1.63636 28.0909V8.7L13.9909 19.9091L1.63636 28.0909C1.63636 28.0909 1.63636 28.1727 1.63636 28.0909ZM18.4909 20.7273C18.1636 21.0545 17.6727 21.0545 17.3455 20.7273L2.86364 7.63636H32.9727L18.4909 20.7273ZM15.3 21.0545L16.3636 22.0364C16.8545 22.4455 17.4273 22.6909 18 22.6909C18.5727 22.6909 19.1455 22.4455 19.6364 22.0364L20.7 21.0545L32.4818 28.9091H3.51818L15.3 21.0545Z" fill="black"/>
</svg>
