<svg width="36" height="36" viewBox="0 0 36 36" fill="none" xmlns="http://www.w3.org/2000/svg">
<rect width="36" height="36" fill="white"/>
<path d="M18 1C13.4913 1 9.16732 2.79106 5.9792 5.97918C2.79109 9.16729 1.00003 13.4913 1.00003 18C0.992968 21.9143 2.30048 25.7177 4.71293 28.8003C7.12538 31.8828 10.503 34.0661 14.3044 34.9999V30.5652H12.8261C8.95306 30.5652 7.59306 24.6521 5.4348 24.6521C9.55914 24.6521 10.3574 27.6087 12.8261 27.6087C13.0265 27.6354 13.2305 27.6156 13.422 27.5508C13.6136 27.486 13.7876 27.3779 13.9306 27.2349C14.0736 27.0919 14.1817 26.9179 14.2465 26.7263C14.3113 26.5348 14.3311 26.3308 14.3044 26.1304V25.613C10.0026 24.4008 6.91306 21.1782 6.91306 17.2608C6.94766 15.2229 7.78108 13.28 9.23393 11.8504C8.8636 11.0512 8.72678 10.1636 8.83925 9.29C8.95173 8.41638 9.3089 7.59237 9.86958 6.91303C11.2219 7.31902 12.4382 8.08557 13.3878 9.13042C16.3674 8.04833 19.6326 8.04833 22.6122 9.13042C23.5618 8.08557 24.7781 7.31902 26.1304 6.91303C26.6911 7.59237 27.0483 8.41638 27.1607 9.29C27.2732 10.1636 27.1364 11.0512 26.7661 11.8504C28.2189 13.28 29.0523 15.2229 29.0869 17.2608C29.0869 21.3113 25.7017 24.6521 21.0748 25.7756C21.5514 26.8114 21.7647 27.9488 21.6956 29.0869V34.9999C25.497 34.0661 28.8746 31.8828 31.2871 28.8003C33.6995 25.7177 35.007 21.9143 35 18C35 13.4913 33.2089 9.16729 30.0208 5.97918C26.8327 2.79106 22.5087 1 18 1V1Z" stroke="black" stroke-width="1.75" stroke-linecap="round" stroke-linejoin="round"/>
</svg>
