<svg width="18" height="17" viewBox="0 0 18 17" fill="none" xmlns="http://www.w3.org/2000/svg">
<path d="M0 16C0 16.5523 0.447715 17 1 17H17C17.5523 17 18 16.5523 18 16V15.1667C18 14.6144 17.5523 14.1667 17 14.1667H1C0.447716 14.1667 0 14.6144 0 15.1667V16ZM0 8.91667C0 9.46895 0.447715 9.91667 1 9.91667H17C17.5523 9.91667 18 9.46895 18 8.91667V8.08333C18 7.53105 17.5523 7.08333 17 7.08333H1C0.447716 7.08333 0 7.53105 0 8.08333V8.91667ZM1 0C0.447716 0 0 0.447715 0 1V1.83333C0 2.38562 0.447715 2.83333 1 2.83333H17C17.5523 2.83333 18 2.38562 18 1.83333V0.999999C18 0.447715 17.5523 0 17 0H1Z" fill="black"/>
</svg>
