<svg width="36" height="36" viewBox="0 0 36 36" fill="none" xmlns="http://www.w3.org/2000/svg">
<path d="M29 26.5H7C6.72386 26.5 6.5 26.2761 6.5 26V24.1925C6.5 23.9164 6.72386 23.6925 7 23.6925H29C29.2761 23.6925 29.5 23.9164 29.5 24.1925V26C29.5 26.2761 29.2761 26.5 29 26.5ZM29 19.5H7C6.72386 19.5 6.5 19.2761 6.5 19V17.0963C6.5 16.8201 6.72386 16.5963 7 16.5963H29C29.2761 16.5963 29.5 16.8201 29.5 17.0963V19C29.5 19.2761 29.2761 19.5 29 19.5ZM6.5 12V10C6.5 9.72386 6.72386 9.5 7 9.5H29C29.2761 9.5 29.5 9.72386 29.5 10V12C29.5 12.2761 29.2761 12.5 29 12.5H7C6.72386 12.5 6.5 12.2761 6.5 12Z" fill="black" stroke="black"/>
</svg>
