<svg width="36" height="36" viewBox="0 0 36 36" fill="none" xmlns="http://www.w3.org/2000/svg">
<rect width="36" height="36" fill="white"/>
<path d="M8.28795 10.7141C9.62921 10.7141 10.7165 9.62677 10.7165 8.28551C10.7165 6.94424 9.62921 5.85693 8.28795 5.85693C6.94668 5.85693 5.85938 6.94424 5.85938 8.28551C5.85938 9.62677 6.94668 10.7141 8.28795 10.7141Z" stroke="black" stroke-width="1.75" stroke-linecap="round" stroke-linejoin="round"/>
<path d="M10.7165 13.9521H5.85938V30.1426H10.7165V13.9521Z" stroke="black" stroke-width="1.75" stroke-linecap="round" stroke-linejoin="round"/>
<path d="M23.6694 13.952C22.7234 13.9321 21.7869 14.1429 20.9407 14.566C20.0944 14.9891 19.3639 15.6119 18.8122 16.3805V13.952H13.9551V30.1424H18.8122V21.2377C18.8122 18.5501 20.2532 17.1901 22.0503 17.1901C23.8475 17.1901 25.2884 18.5501 25.2884 21.2377V30.1424H30.1456V21.2377C30.1456 16.8177 27.717 13.952 23.6694 13.952Z" stroke="black" stroke-width="1.75" stroke-linecap="round" stroke-linejoin="round"/>
<path d="M32.5714 1H3.42857C2.08731 1 1 2.08731 1 3.42857V32.5714C1 33.9127 2.08731 35 3.42857 35H32.5714C33.9127 35 35 33.9127 35 32.5714V3.42857C35 2.08731 33.9127 1 32.5714 1Z" stroke="black" stroke-width="1.75" stroke-linecap="round" stroke-linejoin="round"/>
</svg>
