<svg width="36" height="36" viewBox="0 0 36 36" fill="none" xmlns="http://www.w3.org/2000/svg">
<rect width="36" height="36" fill="white"/>
<path d="M3.11391 5.47826C4.91471 7.68605 7.16356 9.48651 9.71185 10.7607C12.2601 12.0348 15.0498 12.7536 17.8965 12.8696C17.5122 11.3026 17.4826 7.04522 20.4687 5.2713C21.6826 4.47335 23.0964 4.03281 24.5487 4C25.4964 4.00215 26.4334 4.20024 27.3009 4.58183C28.1684 4.96342 28.9476 5.52026 29.5896 6.21739C31.1454 5.88622 32.6412 5.31784 34.0243 4.53217C33.5388 6.11863 32.4864 7.47093 31.0678 8.3313C32.4216 8.21416 33.7485 7.88493 35 7.35565C34.058 8.75915 32.8654 9.9769 31.4817 10.9478C32.5313 20.3643 24.0904 32.0722 12.087 32.0722C8.19372 32.0935 4.36569 31.0727 1 29.1157C2.835 29.3441 4.69722 29.2 6.47523 28.692C8.25324 28.184 9.9105 27.3225 11.3478 26.1591C9.7576 26.0655 8.22458 25.5323 6.91956 24.6188C5.61455 23.7052 4.58877 22.4474 3.95652 20.9852C5.43478 21.4583 6.83913 21.6948 7.65217 20.9852C5.99131 20.5626 4.51013 19.6176 3.42692 18.2896C2.34371 16.9615 1.71578 15.3206 1.63565 13.6087C2.12404 14.0862 2.7019 14.4626 3.33609 14.7163C3.97028 14.97 4.64832 15.0959 5.3313 15.087C3.84382 14.0391 2.79511 12.4794 2.38597 10.7064C1.97684 8.93353 2.23603 7.07199 3.11391 5.47826Z" stroke="black" stroke-width="1.75" stroke-linecap="round" stroke-linejoin="round"/>
</svg>
