<svg width="36" height="36" viewBox="0 0 36 36" fill="none" xmlns="http://www.w3.org/2000/svg">
<path d="M26.8519 11.2483L11.2955 26.8047C11.1003 26.9999 10.7837 26.9999 10.5884 26.8047L9.2423 25.4585C9.04704 25.2633 9.04704 24.9467 9.2423 24.7514L24.7986 9.19508C24.9939 8.99982 25.3105 8.99982 25.5058 9.19508L26.8519 10.5412C27.0472 10.7365 27.0472 11.0531 26.8519 11.2483Z" fill="black" stroke="black"/>
<path d="M24.6161 26.6022L9.05979 11.0458C8.86453 10.8506 8.86453 10.534 9.05979 10.3387L10.3379 9.06066C10.5331 8.8654 10.8497 8.8654 11.045 9.06066L26.6013 24.617C26.7966 24.8123 26.7966 25.1289 26.6013 25.3241L25.3232 26.6022C25.128 26.7974 24.8114 26.7974 24.6161 26.6022Z" fill="black" stroke="black"/>
</svg>
